<?xml version="1.0" encoding="utf-8"?>
<!-- Generator: Adobe Illustrator 21.1.0, SVG Export Plug-In . SVG Version: 6.00 Build 0)  -->
<svg version="1.1" id="Layer_1" xmlns="http://www.w3.org/2000/svg" xmlns:xlink="http://www.w3.org/1999/xlink" x="0px" y="0px"
	 viewBox="0 0 1200 1200" style="enable-background:new 0 0 1200 1200;" xml:space="preserve">
<style type="text/css">
	.st0{fill:#99FFA0;}
	.st1{fill:#3D3D3D;}
	.st2{fill:#A53A3A;}
	.st3{fill:#383838;}
	.st4{font-family:'Superclarendon-Black';}
	.st5{font-size:120.2057px;}
</style>
<g>
	<path class="st0" d="M1123,338l27-26l-10.9-10.5H64.5l-14.5,14l27,26l-27,26l27,26l-27,26l27,26l-27,26l27,26l-27,26l5.9,5.6
		c4-0.7,8-1.1,12.2-1.1c39.7,0,71.9,32.2,71.9,71.8c0,39.7-32.2,71.9-71.9,71.9c-3.1,0-6.1-0.3-9.1-0.6l-8.9,8.5l27,26l-27,26l27,26
		l-27,26l27,26l-27,26l27,26l-27,26l10.9,10.5h1074.5l14.6-14l-27-26l27-26l-27-26l27-26l-27-26l27-26l-27-26l27-26l-5.9-5.6
		c-4,0.7-8,1.1-12.2,1.1c-39.7,0-71.9-32.2-71.9-71.8c0-39.7,32.2-71.9,71.9-71.9c3.1,0,6.1,0.3,9.1,0.6l8.9-8.5l-27-26l27.1-26
		l-27-26l27-26l-27-26l27-26L1123,338z"/>
	<g>
		<path class="st1" d="M335.4,745.8l-6.6,15.1h-11.9l29.2-66.2h11.9l29.2,66.2h-11.9l-6.6-15.1L335.4,745.8L335.4,745.8z M364,735.5
			l-12-27.3l-12,27.3H364z"/>
		<path class="st1" d="M446.4,703.4c6.4,5.8,9.6,13.8,9.6,24.1c0,10.3-3.1,18.4-9.3,24.4c-6.2,6-15.7,9-28.4,9h-22v-66.2H419
			C430.9,694.7,440,697.6,446.4,703.4z M444.7,727.8c0-15.2-8.7-22.7-26.1-22.7h-11.2v45.4h12.4c8,0,14.2-1.9,18.4-5.7
			C442.6,740.8,444.7,735.2,444.7,727.8z"/>
		<path class="st1" d="M481.6,760.9h-11.2v-66.2h17.4l20,41.6l20-41.6h17.3v66.2H534v-51.7l-23.1,45.9h-6.3l-23-45.9L481.6,760.9
			L481.6,760.9z"/>
		<path class="st1" d="M563.5,694.7h11.2v66.2h-11.2V694.7z"/>
		<path class="st1" d="M618.1,704.9v56h-11.2v-56h-20.1v-10.2h51.3v10.2H618.1z"/>
		<path class="st1" d="M731.7,751.8c-6.7,6.5-15,9.8-24.8,9.8c-9.9,0-18.1-3.3-24.8-9.8c-6.7-6.5-10-14.7-10-24.4
			c0-9.8,3.3-17.9,10-24.4c6.7-6.5,15-9.8,24.8-9.8s18.1,3.3,24.8,9.8c6.7,6.5,10,14.7,10,24.4C741.7,737.1,738.3,745.2,731.7,751.8
			z M723.5,710.3c-4.5-4.7-10.1-7-16.6-7c-6.6,0-12.1,2.3-16.6,7c-4.5,4.7-6.8,10.3-6.8,17s2.3,12.3,6.8,17c4.5,4.7,10.1,7,16.6,7
			c6.6,0,12.1-2.3,16.6-7c4.5-4.7,6.8-10.3,6.8-17S728,715,723.5,710.3z"/>
		<path class="st1" d="M805.5,694.7h11.2v66.2h-12.1L767,712.6v48.3h-11.2v-66.2H767l38.5,49.5L805.5,694.7L805.5,694.7z"/>
		<path class="st1" d="M881.5,694.7v10.5h-35.3v17.5h31.7v9.9h-31.7v17.7h36.5v10.5H835v-66.2L881.5,694.7L881.5,694.7z"/>
	</g>
	<g>
		<path class="st2" d="M987.6,352.3H239.3c-24.2,0-44,19.7-44,44V811c0,24.2,19.7,44,44,44h748.3c24.2,0,44-19.7,44-44V396.3
			C1031.6,372.1,1011.9,352.3,987.6,352.3z M987.6,834.7H239.3c-13,0-23.7-10.6-23.7-23.7V612.8h282.9c5.6,0,10.1-4.5,10.1-10.1
			c0-5.6-4.5-10.1-10.1-10.1H215.7V396.3c0-13,10.6-23.7,23.7-23.7h748.3c13,0,23.7,10.6,23.7,23.7v196.2H728.4
			c-5.6,0-10.1,4.5-10.1,10.1c0,5.6,4.5,10.1,10.1,10.1h282.9V811C1011.3,824.1,1000.7,834.7,987.6,834.7z"/>
		<polygon class="st2" points="627.6,590.1 615.7,566.1 603.8,590.1 577.3,594 596.5,612.7 592,639.2 615.7,626.7 639.5,639.2 
			635,612.7 654.2,594 		"/>
	</g>
	<text transform="matrix(1 0 0 1 301.6963 503.9912)" class="st3 st4 st5">Palmers</text>
</g>
</svg>
