<svg id="Layer_1" data-name="Layer 1" xmlns="http://www.w3.org/2000/svg" viewBox="0 0 1200 1200"><defs><style>.cls-1{fill:#fc7a7a;}.cls-2{fill:#3d3d3d;}.cls-3{fill:#a53a3a;}.cls-4{font-size:120.21px;fill:#383838;font-family:Superclarendon-Black, Superclarendon;}.cls-5{letter-spacing:-0.03em;}</style></defs><title>Ticket_Nomad</title><path class="cls-1" d="M1123,338l27-26-10.92-10.51H64.55L50,315.47l27,26-27,26,27,26-27,26,27,26-27,26,27,26-27,26,5.85,5.63a71.86,71.86,0,1,1,3,142L50,679.75l27,26-27,26,27,26-27,26,27,26-27,26,27,26L50,888l10.92,10.51H1135.45l14.55-14-27-26,27-26-27-26,27-26-27-26,27-26-27-26,27-26-5.86-5.63a71.86,71.86,0,1,1-3-142l8.89-8.54-27-26,27.05-26-27-26,27-26-27-26,27-26Z"/><path class="cls-2" d="M335.39,745.85l-6.63,15.07H316.82L346,694.69h11.94l29.17,66.22H375.18l-6.63-15.07H335.39ZM364,735.52l-12-27.28-12,27.28Z"/><path class="cls-2" d="M446.42,703.36Q456,712,456,727.47t-9.29,24.44q-9.28,9-28.42,9h-22V694.69H419Q436.85,694.69,446.42,703.36Zm-1.7,24.39q0-22.73-26.05-22.73H407.48V750.4h12.41q12,0,18.43-5.73T444.71,727.75Z"/><path class="cls-2" d="M481.56,760.91H470.39V694.69h17.43l20,41.59,20-41.59h17.34v66.22H534V709.19l-23.12,45.95h-6.26l-23-45.95v51.72Z"/><path class="cls-2" d="M563.5,694.69h11.18v66.22H563.5Z"/><path class="cls-2" d="M618.07,704.92v56H606.89v-56H586.81V694.69h51.35v10.23Z"/><path class="cls-2" d="M731.66,751.77q-10,9.8-24.82,9.8T682,751.77q-10-9.81-10-24.44t10-24.44q10-9.81,24.82-9.81t24.82,9.81q10,9.8,10,24.44T731.66,751.77Zm-8.19-41.45a23.22,23.22,0,0,0-33.25,0,24.74,24.74,0,0,0,0,34,23.23,23.23,0,0,0,33.25,0,24.75,24.75,0,0,0,0-34Z"/><path class="cls-2" d="M805.45,694.69h11.18v66.22H804.5L767,712.6v48.31H755.81V694.69H767l38.46,49.45V694.69Z"/><path class="cls-2" d="M881.52,694.69v10.52H846.18v17.52h31.73v9.95H846.18V750.4h36.47v10.52H835V694.69h46.51Z"/><path class="cls-3" d="M987.63,352.34H239.33a44,44,0,0,0-44,44V811a44,44,0,0,0,44,44H987.63a44,44,0,0,0,44-44V396.29A44,44,0,0,0,987.63,352.34Zm0,482.34H239.33A23.7,23.7,0,0,1,215.67,811V612.77H498.52a10.14,10.14,0,1,0,0-20.29H215.67V396.29a23.69,23.69,0,0,1,23.67-23.67H987.63a23.7,23.7,0,0,1,23.67,23.67v196.2H728.43a10.14,10.14,0,0,0,0,20.29h282.86V811A23.7,23.7,0,0,1,987.63,834.67Z"/><polygon class="cls-3" points="627.61 590.13 615.73 566.06 603.85 590.13 577.28 594 596.5 612.74 591.97 639.19 615.73 626.7 639.49 639.19 634.96 612.74 654.18 594 627.61 590.13"/><text class="cls-4" transform="translate(354.59 503.99)"><tspan class="cls-5">N</tspan><tspan x="106.74" y="0">omad</tspan></text></svg>